<?xml version="1.0" encoding="utf-8"?>
<!-- Generator: Adobe Illustrator 16.0.0, SVG Export Plug-In . SVG Version: 6.00 Build 0)  -->
<!DOCTYPE svg PUBLIC "-//W3C//DTD SVG 1.1//EN" "http://www.w3.org/Graphics/SVG/1.1/DTD/svg11.dtd">
<svg version="1.1" id="Capa_1" xmlns="http://www.w3.org/2000/svg" xmlns:xlink="http://www.w3.org/1999/xlink" x="0px" y="0px"
	 width="71.542px" height="98.039px" viewBox="0 0 71.542 98.039" enable-background="new 0 0 71.542 98.039" xml:space="preserve">
<g>
	<g>
		<path fill="#A10D59" d="M7.745,39.227h17.834V28.395h4.834v15.578L5.286,43.939c-3.048-4.447-4.831-9.83-4.832-15.631
			c0-15.289,12.395-27.682,27.684-27.682c15.288,0,27.682,12.393,27.682,27.682c0,5.799-1.782,11.182-4.83,15.629l-5.875-0.01
			c3.782-4.109,6.092-9.594,6.092-15.619c0-12.74-10.328-23.068-23.068-23.068c-12.741,0-23.069,10.328-23.069,23.068
			c0,3.953,0.994,7.674,2.747,10.928"/>
		<path fill="#A10D59" d="M1.454,70.51c0,15.289,11.395,26.682,26.684,26.682c15.288,0,26.682-11.393,26.682-26.682V54.879
			L1.468,54.863L1.454,70.51z M6.068,59.592l44.138-0.006V70.51c0,12.74-9.328,22.068-22.068,22.068
			c-12.741,0-22.069-9.328-22.069-22.068V59.592z"/>
	</g>
	<rect x="66.405" y="1.86" fill="#A10D59" width="4.666" height="94.771"/>
</g>
</svg>
