<?xml version="1.0" standalone="no"?>
<!DOCTYPE svg PUBLIC "-//W3C//DTD SVG 20010904//EN"
 "http://www.w3.org/TR/2001/REC-SVG-20010904/DTD/svg10.dtd">
<svg version="1.0" xmlns="http://www.w3.org/2000/svg"
 width="784.000000pt" height="784.000000pt" viewBox="0 0 784.000000 784.000000"
 preserveAspectRatio="xMidYMid meet">
<metadata>
Created by potrace 1.11, written by Peter Selinger 2001-2013
</metadata>
<g transform="translate(0.000000,784.000000) scale(0.100000,-0.100000)"
fill="#000000" stroke="none">
<path d="M3138 7785 c-2 -1 -30 -5 -63 -8 -132 -13 -326 -51 -395 -78 -14 -5
-34 -11 -45 -13 -67 -13 -388 -159 -455 -206 -16 -11 -31 -20 -34 -20 -4 0
-31 -18 -61 -40 -30 -22 -58 -40 -64 -40 -5 0 -11 -3 -13 -8 -1 -4 -40 -37
-85 -72 -107 -84 -282 -262 -364 -370 -35 -47 -66 -87 -69 -90 -6 -6 -9 -11
-89 -146 -54 -91 -77 -136 -140 -279 -19 -41 -55 -146 -54 -155 1 -3 -3 -12
-8 -22 -10 -18 -55 -195 -64 -248 -3 -19 -8 -48 -12 -65 -7 -34 -8 -41 -19
-175 -11 -140 -5 -392 12 -471 2 -13 6 -40 9 -59 2 -19 4 -35 5 -35 1 0 3 -9
5 -20 4 -20 16 -81 20 -100 37 -163 147 -450 206 -536 10 -14 17 -28 15 -30
-2 -2 22 -42 53 -89 l56 -84 1003 -1 1002 -1 0 26 c1 14 1 293 1 620 l0 595
-187 3 c-110 1 -190 -1 -193 -7 -4 -5 -6 -200 -6 -433 l0 -424 -710 0 -710 1
-42 85 c-69 141 -122 312 -158 508 -26 141 -22 456 8 597 4 17 8 41 11 55 39
234 177 531 355 765 65 86 230 249 336 333 57 45 232 150 317 191 59 28 110
51 112 51 3 0 17 5 33 12 15 6 30 12 33 13 3 1 37 11 75 23 198 60 313 77 545
77 181 0 247 -5 360 -29 14 -3 45 -10 70 -15 76 -16 256 -79 348 -123 82 -38
238 -127 272 -154 8 -7 44 -35 80 -61 63 -47 246 -224 303 -294 89 -108 217
-327 281 -479 28 -68 69 -202 82 -265 2 -11 6 -30 9 -42 11 -49 13 -60 20
-118 4 -32 9 -68 12 -80 6 -28 6 -314 0 -350 -3 -16 -9 -59 -12 -95 -4 -36 -9
-68 -11 -72 -3 -4 -7 -20 -9 -35 -20 -141 -122 -405 -214 -558 -23 -37 -41
-69 -41 -72 0 -2 -16 -24 -35 -47 -19 -24 -35 -46 -35 -49 0 -5 -18 -28 -82
-100 -20 -23 -35 -44 -32 -46 2 -2 105 -4 230 -5 l226 -1 34 48 c19 26 34 51
34 56 0 5 3 11 8 13 30 13 170 326 216 484 39 131 44 151 61 244 52 291 50
568 -7 845 -11 55 -22 107 -23 115 -2 8 -4 16 -5 18 -2 1 -3 5 -4 10 -16 60
-29 103 -40 132 -8 19 -24 62 -37 95 -49 131 -204 423 -231 433 -4 2 -8 8 -8
14 0 20 -120 165 -235 286 -80 84 -254 234 -303 262 -15 8 -29 18 -32 21 -16
20 -161 105 -280 165 -158 79 -395 159 -532 179 -24 4 -45 8 -49 11 -4 2 -31
6 -60 10 -30 3 -65 8 -79 11 -26 5 -416 13 -422 8z"/>
<path d="M6433 7692 l-63 -3 0 -3789 0 -3789 173 0 c94 0 179 2 187 5 13 3 15
432 14 3784 0 2079 -3 3782 -6 3785 -6 7 -217 11 -305 7z"/>
<path d="M1188 3448 c-21 -12 -14 -1457 8 -1560 2 -13 7 -41 10 -63 5 -33 23
-119 49 -232 6 -27 73 -222 85 -248 53 -114 105 -219 130 -260 17 -27 33 -57
37 -65 4 -8 12 -21 19 -30 7 -8 41 -54 77 -101 92 -124 177 -216 287 -309 36
-30 67 -57 70 -61 3 -3 28 -21 55 -40 28 -18 52 -36 55 -39 15 -15 71 -50 80
-50 5 0 10 -4 10 -8 0 -4 12 -13 28 -19 15 -7 65 -32 111 -57 140 -76 384
-163 531 -189 153 -28 191 -34 285 -42 64 -6 339 -6 385 0 19 2 61 7 93 10 32
3 82 10 110 16 29 5 67 12 86 15 65 11 243 65 340 103 277 110 499 253 700
452 29 29 114 121 150 165 42 48 181 257 181 270 0 7 3 14 8 16 18 8 152 310
152 343 0 8 4 15 8 15 5 0 9 6 9 13 0 6 10 47 22 90 21 75 25 89 36 147 3 14
7 36 10 50 12 64 15 78 20 115 3 22 8 81 11 130 8 117 11 1404 3 1417 -7 11
-4234 17 -4251 6z m3886 -843 c-1 -512 -6 -654 -29 -735 -2 -8 -7 -37 -11 -65
-3 -27 -10 -58 -15 -67 -6 -10 -7 -18 -3 -18 3 0 1 -7 -6 -15 -7 -8 -10 -15
-7 -15 3 0 -6 -33 -19 -72 -14 -40 -27 -77 -28 -83 -26 -91 -147 -315 -228
-420 -76 -100 -238 -265 -298 -304 -14 -9 -29 -21 -35 -28 -33 -39 -350 -212
-421 -229 -16 -4 -33 -10 -39 -14 -10 -8 -115 -38 -190 -55 -11 -2 -31 -6 -45
-10 -14 -3 -41 -7 -60 -10 -19 -3 -57 -8 -85 -13 -27 -4 -65 -8 -82 -7 -18 0
-33 -2 -33 -5 0 -11 -326 1 -405 15 -16 3 -55 10 -85 15 -54 10 -95 18 -115
24 -5 2 -23 6 -40 10 -141 36 -367 140 -499 229 -134 90 -301 244 -381 352
-16 22 -32 42 -35 45 -3 3 -25 34 -49 70 -92 142 -203 399 -226 525 -2 11 -8
35 -14 53 -5 17 -8 32 -6 32 3 0 1 10 -4 23 -5 13 -12 48 -15 78 -4 30 -9 70
-12 89 -8 51 -11 1064 -3 1070 4 3 798 5 1765 5 l1758 0 0 -470z"/>
</g>
</svg>
